<?xml version="1.0" encoding="UTF-8" ?>
<!DOCTYPE svg PUBLIC "-//W3C//DTD SVG 1.1//EN" "http://www.w3.org/Graphics/SVG/1.1/DTD/svg11.dtd">
<svg width="80pt" height="80pt" viewBox="0 0 1000 1000" version="1.1" xmlns="http://www.w3.org/2000/svg">
<g id="#3577b6ff">
<path fill="#3577b6" opacity="1.00" d=" M 346.08 72.01 C 457.03 72.00 567.98 71.99 678.93 72.01 C 734.57 134.14 790.41 196.09 846.02 258.24 C 845.97 480.57 846.02 702.91 846.00 925.24 C 623.75 925.24 401.50 925.25 179.25 925.23 C 179.26 703.51 179.25 481.79 179.26 260.07 C 179.22 258.03 181.26 256.86 182.36 255.39 C 236.94 194.27 291.53 133.16 346.08 72.01 M 401.29 165.03 C 358.23 214.42 315.07 263.71 271.98 313.05 C 271.32 313.88 271.07 314.85 271.23 315.94 C 271.28 435.32 271.24 554.69 271.25 674.06 C 271.36 727.15 271.04 780.26 271.41 833.34 C 432.19 833.11 592.97 833.34 753.75 833.23 C 753.69 660.20 753.85 487.16 753.67 314.14 C 750.29 309.39 746.01 305.28 742.30 300.77 C 702.79 255.52 663.19 210.35 623.74 165.05 C 549.59 164.96 475.44 164.99 401.29 165.03 Z" />
</g>
<g id="#ffffffff">
<path fill="#ffffff" opacity="1.00" d=" M 401.29 165.03 C 475.44 164.99 549.59 164.96 623.74 165.05 C 663.19 210.35 702.79 255.52 742.30 300.77 C 746.01 305.28 750.29 309.39 753.67 314.14 C 753.85 487.16 753.69 660.20 753.75 833.23 C 592.97 833.34 432.19 833.11 271.41 833.34 C 271.04 780.26 271.36 727.15 271.25 674.06 C 271.24 554.69 271.28 435.32 271.23 315.94 C 271.07 314.85 271.32 313.88 271.98 313.05 C 315.07 263.71 358.23 214.42 401.29 165.03 M 332.75 372.75 C 332.74 494.92 332.74 617.08 332.75 739.25 C 355.42 739.25 378.09 739.26 400.75 739.24 C 400.76 646.08 400.75 552.92 400.76 459.76 C 410.17 459.74 419.58 459.75 428.99 459.76 C 429.01 552.92 428.99 646.08 429.01 739.25 C 484.19 739.34 539.39 739.09 594.57 739.37 C 594.99 704.59 594.63 669.79 594.75 635.00 C 594.76 576.59 594.74 518.17 594.76 459.76 C 604.59 459.75 614.41 459.75 624.24 459.76 C 624.36 552.95 624.04 646.16 624.40 739.35 C 647.18 739.12 669.97 739.33 692.76 739.24 C 692.78 617.10 692.69 494.97 692.81 372.83 C 637.46 372.64 582.10 372.79 526.75 372.75 C 526.74 469.17 526.74 565.58 526.75 661.99 C 516.92 662.00 507.08 662.01 497.24 661.98 C 497.26 565.57 497.26 469.16 497.25 372.75 C 442.41 372.74 387.58 372.74 332.75 372.75 Z" />
<path fill="#ffffff" opacity="1.00" d=" M 644.01 671.25 C 653.75 671.26 663.49 671.25 673.23 671.25 C 673.31 687.71 673.14 704.17 673.32 720.63 C 663.55 720.91 653.78 720.66 644.02 720.76 C 643.99 704.25 643.99 687.75 644.01 671.25 Z" />
</g>
<g id="#646466ff">
<path fill="#646466" opacity="1.00" d=" M 332.75 372.75 C 387.58 372.74 442.41 372.74 497.25 372.75 C 497.26 469.16 497.26 565.57 497.24 661.98 C 507.08 662.01 516.92 662.00 526.75 661.99 C 526.74 565.58 526.74 469.17 526.75 372.75 C 582.10 372.79 637.46 372.64 692.81 372.83 C 692.69 494.97 692.78 617.10 692.76 739.24 C 669.97 739.33 647.18 739.12 624.40 739.35 C 624.04 646.16 624.36 552.95 624.24 459.76 C 614.41 459.75 604.59 459.75 594.76 459.76 C 594.74 518.17 594.76 576.59 594.75 635.00 C 594.63 669.79 594.99 704.59 594.57 739.37 C 539.39 739.09 484.19 739.34 429.01 739.25 C 428.99 646.08 429.01 552.92 428.99 459.76 C 419.58 459.75 410.17 459.74 400.76 459.76 C 400.75 552.92 400.76 646.08 400.75 739.24 C 378.09 739.26 355.42 739.25 332.75 739.25 C 332.74 617.08 332.74 494.92 332.75 372.75 M 644.01 671.25 C 643.99 687.75 643.99 704.25 644.02 720.76 C 653.78 720.66 663.55 720.91 673.32 720.63 C 673.14 704.17 673.31 687.71 673.23 671.25 C 663.49 671.25 653.75 671.26 644.01 671.25 Z" />
</g>
</svg>
