<?xml version="1.0" encoding="UTF-8" standalone="no"?>
<svg
   xmlns:dc="http://purl.org/dc/elements/1.1/"
   xmlns:cc="http://creativecommons.org/ns#"
   xmlns:rdf="http://www.w3.org/1999/02/22-rdf-syntax-ns#"
   xmlns:svg="http://www.w3.org/2000/svg"
   xmlns="http://www.w3.org/2000/svg"
   xmlns:sodipodi="http://sodipodi.sourceforge.net/DTD/sodipodi-0.dtd"
   xmlns:inkscape="http://www.inkscape.org/namespaces/inkscape"
   width="40"
   height="40"
   viewBox="0 0 40 40"
   version="1.1"
   id="svg14"
   sodipodi:docname="pluginIcon.svg"
   inkscape:version="1.0 (9f2f71dc58, 2020-08-02)">
  <metadata
     id="metadata18">
    <rdf:RDF>
      <cc:Work
         rdf:about="">
        <dc:format>image/svg+xml</dc:format>
        <dc:type
           rdf:resource="http://purl.org/dc/dcmitype/StillImage" />
      </cc:Work>
    </rdf:RDF>
  </metadata>
  <sodipodi:namedview
     pagecolor="#ffffff"
     bordercolor="#666666"
     borderopacity="1"
     objecttolerance="10"
     gridtolerance="10"
     guidetolerance="10"
     inkscape:pageopacity="0"
     inkscape:pageshadow="2"
     inkscape:window-width="2493"
     inkscape:window-height="1412"
     id="namedview16"
     showgrid="false"
     inkscape:zoom="8.875"
     inkscape:cx="-7.9840948"
     inkscape:cy="19.516403"
     inkscape:window-x="67"
     inkscape:window-y="0"
     inkscape:window-maximized="1"
     inkscape:current-layer="svg14" />
  <!-- Generator: Sketch 43.2 (39069) - http://www.bohemiancoding.com/sketch -->
  <title
     id="title2">gitduck-icon-light-alpha@1x</title>
  <desc
     id="desc4">Created with Sketch.</desc>
  <defs
     id="defs6" />
  <circle
     style="fill:#444049;fill-opacity:1;fill-rule:evenodd;stroke-width:0.604408"
     id="path20"
     cx="20"
     cy="20"
     r="18" />
  <g
     id="Page-1"
     stroke="none"
     stroke-width="1"
     fill="none"
     fill-rule="evenodd"
     transform="matrix(0.40340432,0,0,0.40340432,3.870231,4.0207124)">
    <g
       id="gitduck-icon-light-alpha">
      <g
         id="Icon-GitDuck"
         transform="translate(4,6)">
        <path
           d="M 10.57465,16.242339 C 11.443881,7.1277843 19.092062,0 28.398459,0 c 9.889266,0 17.9061,8.0485847 17.9061,17.977017 0,2.41693 -0.475083,4.722459 -1.336609,6.827596 -0.01703,0.08181 -0.03467,0.162295 -0.05294,0.241382 -1.186371,5.136562 3.969561,7.189278 6.115238,8.468934 0,0 7.559057,4.707426 10.068859,5.704281 2.834696,1.125897 5.157231,-1.321948 7.674495,-4.0642 0.7076,-0.770845 2.451545,-0.0638 2.443759,1.012474 0,8.180012 -7.865714,31.047759 -26.302351,31.047759 -7.479288,0 -12.245206,0.02436 -19.481799,-0.01815 -0.294636,0.01416 -0.591098,0.02132 -0.889226,0.02132 -10.104252,0 -18.2953673,-8.223556 -18.2953673,-18.367826 0,-5.344319 2.2734539,-10.155541 5.9023793,-13.512049 1.53974,-1.65013 2.864692,-2.707562 2.864692,-4.52741 0,-0.275328 -0.0017,-0.534647 -0.0058,-0.779417 C 5.9951346,28.45256 2.8266245,22.523544 1.9025483,21.058305 -0.0012242,18.039635 0.7954582,16.36411 1.8930923,16.225343 Z"
           id="Combined-Shape"
           stroke="#ffeb3b"
           stroke-width="3.9"
           fill-rule="nonzero" />
        <path
           d="m 13.155469,12.98952 c 0,0 -2.290422,7.958324 2.464857,13.118378 2.195703,2.382605 1.638641,5.321188 0.732222,7.127743 -0.90642,1.806556 -0.904608,-1.195628 -1.668524,-1.611044 C 11.226279,29.744281 4.0938191,24.474541 4.0376379,24.32467 3.9690446,24.141687 1.2624981,19.007802 1.2624981,19.007802 v -1.701118 l 1.2386198,-0.311257 h 5.9525664 l 1.7821327,-2.390612 z"
           id="Path-5"
           fill="#ffeb3b" />
        <path
           d="m 41.910701,48.988321 -12,6.758631 c -2.391796,1.347106 -5.348765,-0.381186 -5.348765,-3.126251 V 39.103437 c 0,-2.745066 2.956969,-4.473358 5.348765,-3.126251 l 12,6.758631 c 2.436313,1.372179 2.436313,4.880325 0,6.252504 z"
           id="Triangle"
           fill="#ffeb3b"
           fill-rule="nonzero" />
      </g>
    </g>
  </g>
</svg>
